<?xml version="1.0" encoding="utf-8"?><!-- Uploaded to: SVG Repo, www.svgrepo.com, Generator: SVG Repo Mixer Tools -->
<svg fill="#c6c6c6" width="800px" height="800px" viewBox="0 0 24 24" xmlns="http://www.w3.org/2000/svg" id="sun" class="icon glyph"><path d="M16,12a4,4,0,1,1-4-4A4,4,0,0,1,16,12Zm-3,9V20a1,1,0,0,0-2,0v1a1,1,0,0,0,2,0Zm6.07-1.93a1,1,0,0,0,0-1.41L18.36,17A1,1,0,0,0,17,18.36l.71.71a1,1,0,0,0,1.41,0Zm-12.73,0,.71-.71A1,1,0,0,0,5.64,17l-.71.71a1,1,0,0,0,0,1.41,1,1,0,0,0,1.41,0ZM22,12a1,1,0,0,0-1-1H20a1,1,0,0,0,0,2h1A1,1,0,0,0,22,12ZM5,12a1,1,0,0,0-1-1H3a1,1,0,0,0,0,2H4A1,1,0,0,0,5,12ZM18.36,7.05l.71-.71a1,1,0,1,0-1.41-1.41L17,5.64a1,1,0,0,0,0,1.41,1,1,0,0,0,.71.29A1,1,0,0,0,18.36,7.05Zm-11.31,0a1,1,0,0,0,0-1.41l-.71-.71A1,1,0,0,0,4.93,6.34l.71.71a1,1,0,0,0,.7.29A1,1,0,0,0,7.05,7.05Zm6-3V3a1,1,0,0,0-2,0V4a1,1,0,0,0,2,0Z"></path></svg>